<svg width="24.000000" height="24.000000" viewBox="0 0 24 24" fill="none" xmlns="http://www.w3.org/2000/svg" xmlns:xlink="http://www.w3.org/1999/xlink">
	<desc>
			Created with Pixso.
	</desc>
	<defs>
		<clipPath id="clip501_9219">
			<rect id="search" rx="0.000000" width="23.000000" height="23.000000" transform="translate(0.500000 0.500000)" fill="white" fill-opacity="0"/>
		</clipPath>
	</defs>
	<rect id="search" rx="0.000000" width="23.000000" height="23.000000" transform="translate(0.500000 0.500000)" fill="#FFFFFF" fill-opacity="0"/>
	<g clip-path="url(#clip501_9219)">
		<path id="Vector" d="M19.6 21L13.3 14.7C12.8 15.1 12.22 15.41 11.57 15.64C10.92 15.88 10.23 16 9.5 16C7.68 16 6.14 15.37 4.88 14.11C3.62 12.85 3 11.31 3 9.5C3 7.68 3.62 6.14 4.88 4.88C6.14 3.62 7.68 3 9.5 3C11.31 3 12.85 3.62 14.11 4.88C15.37 6.14 16 7.68 16 9.5C16 10.23 15.88 10.92 15.64 11.57C15.41 12.22 15.1 12.79 14.7 13.29L21 19.6L19.6 21ZM9.5 14C10.75 14 11.81 13.56 12.68 12.68C13.56 11.81 14 10.75 14 9.5C14 8.25 13.56 7.18 12.68 6.31C11.81 5.43 10.75 5 9.5 5C8.25 5 7.18 5.43 6.31 6.31C5.43 7.18 5 8.25 5 9.5C5 10.75 5.43 11.81 6.31 12.68C7.18 13.56 8.25 14 9.5 14Z" fill="#1F3A55" fill-opacity="1.000000" fill-rule="nonzero"/>
	</g>
</svg>
