<svg width="30" height="30" viewBox="0 0 30 30" fill="none" xmlns="http://www.w3.org/2000/svg">
<rect width="30" height="30" fill="#F5F5F5"/>
<rect width="2106" height="18129" transform="translate(-15 -2316)" fill="white"/>
<rect width="2029" height="1063" transform="translate(-15 -303)" fill="#1F3A55"/>
<path d="M3.75 12.5V5H6.25V7.9375C7.3125 6.60417 8.60938 5.57292 10.1406 4.84375C11.6719 4.11458 13.2917 3.75 15 3.75C18.125 3.75 20.7812 4.84375 22.9688 7.03125C25.1562 9.21875 26.25 11.875 26.25 15H23.75C23.75 12.5625 22.901 10.4948 21.2031 8.79688C19.5052 7.09896 17.4375 6.25 15 6.25C13.5625 6.25 12.2188 6.58333 10.9688 7.25C9.71875 7.91667 8.66667 8.83333 7.8125 10H11.25V12.5H3.75ZM3.8125 16.25H6.375C6.625 18.1875 7.42188 19.8281 8.76562 21.1719C10.1094 22.5156 11.7188 23.3333 13.5938 23.625L15.0938 26.25C12.2188 26.25 9.69792 25.2969 7.53125 23.3906C5.36458 21.4844 4.125 19.1042 3.8125 16.25ZM16.6875 18.4375L13.75 15.5V8.75H16.25V14.5L18 16.25L16.6875 18.4375ZM22.4688 30L22.0938 28.125C21.8438 28.0208 21.6094 27.9115 21.3906 27.7969C21.1719 27.6823 20.9479 27.5417 20.7188 27.375L18.9062 27.9375L17.6562 25.8125L19.0938 24.5625C19.0521 24.2917 19.0312 24.0208 19.0312 23.75C19.0312 23.4792 19.0521 23.2083 19.0938 22.9375L17.6562 21.6875L18.9062 19.5625L20.7188 20.125C20.9479 19.9583 21.1719 19.8177 21.3906 19.7031C21.6094 19.5885 21.8438 19.4792 22.0938 19.375L22.4688 17.5H24.9688L25.3438 19.375C25.5938 19.4792 25.8333 19.599 26.0625 19.7344C26.2917 19.8698 26.5104 20.0208 26.7188 20.1875L28.5312 19.5625L29.7812 21.75L28.3438 23C28.3854 23.2708 28.4062 23.5312 28.4062 23.7812C28.4062 24.0312 28.3854 24.2917 28.3438 24.5625L29.7812 25.8125L28.5312 27.9375L26.7188 27.375C26.4896 27.5417 26.2656 27.6823 26.0469 27.7969C25.8281 27.9115 25.5938 28.0208 25.3438 28.125L24.9688 30H22.4688ZM23.7188 26.25C24.4062 26.25 24.9948 26.0052 25.4844 25.5156C25.974 25.026 26.2188 24.4375 26.2188 23.75C26.2188 23.0625 25.974 22.474 25.4844 21.9844C24.9948 21.4948 24.4062 21.25 23.7188 21.25C23.0312 21.25 22.4427 21.4948 21.9531 21.9844C21.4635 22.474 21.2188 23.0625 21.2188 23.75C21.2188 24.4375 21.4635 25.026 21.9531 25.5156C22.4427 26.0052 23.0312 26.25 23.7188 26.25Z" fill="#A5B0BB"/>
</svg>
