<svg width="134" height="106" viewBox="0 0 134 106" fill="none" xmlns="http://www.w3.org/2000/svg">
<path d="M44.021 74.8346L42.7877 64.968C42.1196 64.711 41.4901 64.4027 40.8992 64.043C40.3082 63.6832 39.7301 63.2978 39.1648 62.8867L29.9919 66.7409L21.5127 52.095L29.4523 46.0826C29.4009 45.7228 29.3752 45.376 29.3752 45.0419V42.9607C29.3752 42.6266 29.4009 42.2798 29.4523 41.92L21.5127 35.9076L29.9919 21.2617L39.1648 25.1159C39.7301 24.7048 40.321 24.3194 40.9377 23.9596C41.5544 23.5999 42.171 23.2916 42.7877 23.0346L44.021 13.168H60.9794L62.2127 23.0346C62.8808 23.2916 63.5103 23.5999 64.1012 23.9596C64.6922 24.3194 65.2703 24.7048 65.8356 25.1159L75.0085 21.2617L83.4877 35.9076L75.5481 41.92C75.5995 42.2798 75.6252 42.6266 75.6252 42.9607V45.0419C75.6252 45.376 75.5738 45.7228 75.471 46.0826L83.4106 52.095L74.9314 66.7409L65.8356 62.8867C65.2703 63.2978 64.6794 63.6832 64.0627 64.043C63.446 64.4027 62.8294 64.711 62.2127 64.968L60.9794 74.8346H44.021ZM49.4169 68.668H55.5064L56.5856 60.4971C58.1787 60.086 59.6561 59.4822 61.0179 58.6857C62.3797 57.8891 63.6259 56.9256 64.7564 55.795L72.3877 58.9555L75.3939 53.7138L68.7648 48.7034C69.0217 47.9839 69.2016 47.226 69.3044 46.4294C69.4071 45.6329 69.4585 44.8235 69.4585 44.0013C69.4585 43.1791 69.4071 42.3697 69.3044 41.5732C69.2016 40.7766 69.0217 40.0187 68.7648 39.2992L75.3939 34.2888L72.3877 29.0471L64.7564 32.2846C63.6259 31.1027 62.3797 30.1135 61.0179 29.3169C59.6561 28.5204 58.1787 27.9166 56.5856 27.5055L55.5835 19.3346H49.4939L48.4148 27.5055C46.8217 27.9166 45.3443 28.5204 43.9825 29.3169C42.6207 30.1135 41.3745 31.077 40.2439 32.2076L32.6127 29.0471L29.6064 34.2888L36.2356 39.2221C35.9787 39.993 35.7988 40.7638 35.696 41.5346C35.5933 42.3055 35.5419 43.1277 35.5419 44.0013C35.5419 44.8235 35.5933 45.62 35.696 46.3909C35.7988 47.1617 35.9787 47.9325 36.2356 48.7034L29.6064 53.7138L32.6127 58.9555L40.2439 55.718C41.3745 56.8999 42.6207 57.8891 43.9825 58.6857C45.3443 59.4822 46.8217 60.086 48.4148 60.4971L49.4169 68.668ZM52.6544 54.793C55.6349 54.793 58.1787 53.7395 60.2856 51.6325C62.3926 49.5256 63.446 46.9819 63.446 44.0013C63.446 41.0207 62.3926 38.477 60.2856 36.3701C58.1787 34.2631 55.6349 33.2096 52.6544 33.2096C49.6224 33.2096 47.0658 34.2631 44.9846 36.3701C42.9033 38.477 41.8627 41.0207 41.8627 44.0013C41.8627 46.9819 42.9033 49.5256 44.9846 51.6325C47.0658 53.7395 49.6224 54.793 52.6544 54.793Z" fill="#1F3A55"/>
<g clip-path="url(#clip0_270_10059)">
<path d="M99.2433 38.1744L96.783 33.2451C96.3865 33.2338 96.0008 33.1885 95.6258 33.1093C95.2507 33.03 94.8777 32.935 94.5066 32.8242L90.4222 36.5265L83.2957 30.433L86.3384 25.8298C86.2453 25.6512 86.1681 25.4747 86.1066 25.3001L85.7236 24.2125C85.6621 24.0379 85.6117 23.8519 85.5723 23.6545L80.3166 21.9735L82.0525 12.7592L87.5556 13.0852C87.7753 12.7664 88.0132 12.4562 88.2693 12.1547C88.5254 11.8532 88.7909 11.5786 89.0659 11.3309L87.8946 5.94759L96.757 2.82671L99.2173 7.75603C99.6137 7.76737 99.9995 7.81265 100.375 7.89188C100.75 7.97111 101.123 8.06614 101.494 8.17695L105.578 4.47466L112.705 10.5681L109.662 15.1714C109.755 15.3499 109.832 15.5264 109.894 15.701L110.277 16.7887C110.338 16.9632 110.375 17.1539 110.388 17.3609L115.643 19.0418L113.907 28.2561L108.445 27.9159C108.225 28.2348 107.987 28.5449 107.731 28.8464C107.475 29.1479 107.209 29.4225 106.934 29.6703L108.106 35.0535L99.2433 38.1744ZM100.928 33.9587L104.111 32.8381L103.171 28.3694C103.928 27.8614 104.589 27.2739 105.154 26.6071C105.719 25.9402 106.193 25.2073 106.576 24.4084L111.145 24.6556L111.752 21.3631L107.365 19.9647C107.367 19.5414 107.322 19.1122 107.229 18.677C107.136 18.2418 107.014 17.8094 106.863 17.3797C106.711 16.95 106.535 16.5365 106.335 16.1391C106.135 15.7418 105.901 15.3788 105.635 15.0501L108.177 11.2117L105.641 9.02562L102.249 12.1219C101.441 11.7123 100.607 11.4247 99.7491 11.259C98.8908 11.0934 98.0076 11.0497 97.0994 11.128L95.072 7.0424L91.8896 8.16308L92.8294 12.6317C92.0725 13.1398 91.4115 13.7272 90.8464 14.3941C90.2813 15.061 89.8074 15.7938 89.4246 16.5927L84.8549 16.3455L84.2485 19.638L88.6208 20.9962C88.6284 21.4463 88.6762 21.8823 88.7644 22.304C88.8525 22.7258 88.977 23.1649 89.1378 23.6214C89.2891 24.0511 89.4625 24.4579 89.6581 24.8419C89.8537 25.2258 90.0895 25.5955 90.3657 25.9511L87.8233 29.7895L90.359 31.9755L93.7513 28.8792C94.5596 29.2888 95.3929 29.5765 96.2512 29.7421C97.1095 29.9078 97.9927 29.9514 98.9009 29.8731L100.928 33.9587ZM100.067 26.1119C101.624 25.5634 102.76 24.5447 103.473 23.0559C104.187 21.567 104.269 20.0438 103.72 18.4862C103.172 16.9286 102.153 15.7931 100.664 15.0797C99.1756 14.3664 97.6523 14.284 96.0947 14.8325C94.5102 15.3905 93.368 16.4115 92.6681 17.8956C91.9682 19.3797 91.8925 20.9006 92.441 22.4582C92.9895 24.0158 94.0015 25.1537 95.4769 25.8718C96.9523 26.5898 98.4822 26.6699 100.067 26.1119Z" fill="#F64E11"/>
</g>
<path d="M3.56725 86.7169C2.66512 86.7169 1.92336 86.4491 1.34199 85.9135C0.780663 85.3572 0.5 84.6774 0.5 83.8739C0.5 83.0499 0.780663 82.37 1.34199 81.8344C1.92336 81.2781 2.66512 81 3.56725 81C4.44933 81 5.17104 81.2781 5.73236 81.8344C6.31374 82.37 6.60442 83.0499 6.60442 83.8739C6.60442 84.6774 6.31374 85.3572 5.73236 85.9135C5.17104 86.4491 4.44933 86.7169 3.56725 86.7169ZM6.12329 88.5093V105.753H0.981137V88.5093H6.12329Z" fill="#1F3A55"/>
<path d="M20.0739 88.3239C22.0385 88.3239 23.6022 88.9831 24.765 90.3016C25.9478 91.5995 26.5392 93.3918 26.5392 95.6786V105.753H21.4271V96.3894C21.4271 95.2357 21.1364 94.3395 20.555 93.7009C19.9737 93.0622 19.1918 92.7429 18.2095 92.7429C17.2272 92.7429 16.4453 93.0622 15.864 93.7009C15.2826 94.3395 14.9919 95.2357 14.9919 96.3894V105.753H9.84975V88.5093H14.9919V90.796C15.5131 90.0338 16.2148 89.4363 17.0969 89.0037C17.979 88.5505 18.9713 88.3239 20.0739 88.3239Z" fill="#1F3A55"/>
<path d="M38.5324 92.8974H35.7658V105.753H30.6237V92.8974H28.7593V88.5093H30.6237V88.0148C30.6237 85.8929 31.2151 84.2859 32.3979 83.1941C33.5807 82.0816 35.3148 81.5253 37.6002 81.5253C37.9811 81.5253 38.2617 81.5356 38.4421 81.5562V86.0371C37.4598 85.9753 36.7682 86.1195 36.3672 86.4697C35.9663 86.8199 35.7658 87.4483 35.7658 88.3548V88.5093H38.5324V92.8974Z" fill="#1F3A55"/>
<path d="M48.5867 106C46.9428 106 45.4593 105.639 44.1361 104.918C42.8331 104.197 41.8006 103.167 41.0388 101.828C40.2971 100.489 39.9262 98.9234 39.9262 97.131C39.9262 95.3593 40.3071 93.8039 41.0689 92.4648C41.8307 91.1051 42.8732 90.0647 44.1963 89.3436C45.5194 88.6226 47.0029 88.2621 48.6468 88.2621C50.2907 88.2621 51.7742 88.6226 53.0973 89.3436C54.4204 90.0647 55.4629 91.1051 56.2247 92.4648C56.9865 93.8039 57.3674 95.3593 57.3674 97.131C57.3674 98.9028 56.9765 100.468 56.1946 101.828C55.4328 103.167 54.3803 104.197 53.0372 104.918C51.714 105.639 50.2305 106 48.5867 106ZM48.5867 101.426C49.569 101.426 50.4009 101.056 51.0826 100.314C51.7842 99.5723 52.135 98.5113 52.135 97.131C52.135 95.7507 51.7942 94.6897 51.1126 93.9481C50.4511 93.2064 49.6291 92.8356 48.6468 92.8356C47.6444 92.8356 46.8125 93.2064 46.1509 93.9481C45.4893 94.6691 45.1586 95.7301 45.1586 97.131C45.1586 98.5113 45.4793 99.5723 46.1208 100.314C46.7824 101.056 47.6043 101.426 48.5867 101.426Z" fill="#1F3A55"/>
<path d="M65.2376 90.9506C65.7187 90.1471 66.4103 89.4981 67.3125 89.0037C68.2146 88.5093 69.247 88.2621 70.4098 88.2621C71.7931 88.2621 73.046 88.6226 74.1687 89.3436C75.2913 90.0647 76.1734 91.0948 76.8149 92.4339C77.4765 93.773 77.8073 95.3284 77.8073 97.1001C77.8073 98.8719 77.4765 100.438 76.8149 101.797C76.1734 103.136 75.2913 104.177 74.1687 104.918C73.046 105.639 71.7931 106 70.4098 106C69.227 106 68.1945 105.763 67.3125 105.289C66.4304 104.795 65.7387 104.146 65.2376 103.342V105.753H60.0954V82.885H65.2376V90.9506ZM72.5749 97.1001C72.5749 95.7816 72.214 94.7515 71.4923 94.0099C70.7907 93.2476 69.9186 92.8665 68.8762 92.8665C67.8537 92.8665 66.9817 93.2476 66.26 94.0099C65.5583 94.7721 65.2075 95.8125 65.2075 97.131C65.2075 98.4495 65.5583 99.4899 66.26 100.252C66.9817 101.014 67.8537 101.396 68.8762 101.396C69.8986 101.396 70.7706 101.014 71.4923 100.252C72.214 99.4693 72.5749 98.4186 72.5749 97.1001Z" fill="#1F3A55"/>
<path d="M79.4825 97.1001C79.4825 95.3284 79.8033 93.773 80.4448 92.4339C81.1064 91.0948 81.9985 90.0647 83.1211 89.3436C84.2438 88.6226 85.4968 88.2621 86.88 88.2621C88.0628 88.2621 89.0953 88.5093 89.9773 89.0037C90.8795 89.4981 91.5711 90.1471 92.0522 90.9506V88.5093H97.1944V105.753H92.0522V103.311C91.5511 104.115 90.8494 104.764 89.9473 105.258C89.0652 105.753 88.0327 106 86.8499 106C85.4867 106 84.2438 105.639 83.1211 104.918C81.9985 104.177 81.1064 103.136 80.4448 101.797C79.8033 100.438 79.4825 98.8719 79.4825 97.1001ZM92.0522 97.131C92.0522 95.8125 91.6914 94.7721 90.9697 94.0099C90.268 93.2476 89.406 92.8665 88.3836 92.8665C87.3612 92.8665 86.4891 93.2476 85.7674 94.0099C85.0657 94.7515 84.7149 95.7816 84.7149 97.1001C84.7149 98.4186 85.0657 99.4693 85.7674 100.252C86.4891 101.014 87.3612 101.396 88.3836 101.396C89.406 101.396 90.268 101.014 90.9697 100.252C91.6914 99.4899 92.0522 98.4495 92.0522 97.131Z" fill="#1F3A55"/>
<path d="M107.741 106C106.277 106 104.974 105.742 103.831 105.227C102.689 104.712 101.787 104.012 101.125 103.126C100.463 102.22 100.093 101.21 100.012 100.098H105.094C105.155 100.695 105.425 101.179 105.906 101.55C106.387 101.921 106.979 102.106 107.68 102.106C108.322 102.106 108.813 101.983 109.154 101.735C109.515 101.468 109.695 101.128 109.695 100.716C109.695 100.221 109.445 99.8607 108.943 99.6341C108.442 99.3869 107.63 99.1191 106.508 98.8307C105.305 98.5422 104.303 98.2435 103.501 97.9345C102.699 97.6049 102.007 97.1001 101.426 96.4203C100.844 95.7198 100.554 94.7824 100.554 93.6082C100.554 92.6193 100.814 91.7231 101.336 90.9197C101.877 90.0956 102.659 89.4466 103.681 88.9728C104.724 88.499 105.956 88.2621 107.38 88.2621C109.485 88.2621 111.139 88.7977 112.341 89.869C113.564 90.9403 114.266 92.3618 114.446 94.1335H109.695C109.615 93.5361 109.354 93.0622 108.913 92.712C108.492 92.3618 107.931 92.1867 107.229 92.1867C106.628 92.1867 106.167 92.3103 105.846 92.5575C105.525 92.7841 105.365 93.1034 105.365 93.5155C105.365 94.0099 105.616 94.3807 106.117 94.6279C106.638 94.8752 107.44 95.1224 108.522 95.3696C109.765 95.6992 110.778 96.0288 111.56 96.3585C112.341 96.6675 113.023 97.1825 113.604 97.9036C114.206 98.604 114.517 99.5517 114.537 100.747C114.537 101.756 114.256 102.663 113.695 103.466C113.153 104.249 112.362 104.867 111.319 105.32C110.297 105.773 109.104 106 107.741 106Z" fill="#1F3A55"/>
<path d="M133.5 96.8529C133.5 97.3473 133.47 97.8624 133.41 98.398H121.772C121.852 99.4693 122.183 100.293 122.765 100.87C123.366 101.426 124.098 101.705 124.96 101.705C126.243 101.705 127.135 101.148 127.636 100.036H133.109C132.828 101.169 132.317 102.189 131.575 103.095C130.854 104.002 129.942 104.712 128.839 105.227C127.736 105.742 126.503 106 125.14 106C123.496 106 122.033 105.639 120.75 104.918C119.467 104.197 118.464 103.167 117.743 101.828C117.021 100.489 116.66 98.9234 116.66 97.131C116.66 95.3387 117.011 93.773 117.713 92.4339C118.434 91.0948 119.437 90.0647 120.72 89.3436C122.003 88.6226 123.476 88.2621 125.14 88.2621C126.764 88.2621 128.208 88.6123 129.47 89.3127C130.733 90.0132 131.716 91.0124 132.417 92.3103C133.139 93.6082 133.5 95.1224 133.5 96.8529ZM128.238 95.4623C128.238 94.5558 127.937 93.8348 127.335 93.2991C126.734 92.7635 125.982 92.4957 125.08 92.4957C124.218 92.4957 123.486 92.7532 122.885 93.2682C122.304 93.7833 121.943 94.5146 121.802 95.4623H128.238Z" fill="#1F3A55"/>
<defs>
<clipPath id="clip0_270_10059">
<rect width="41" height="41" fill="white" transform="translate(77.5)"/>
</clipPath>
</defs>
</svg>
