<svg width="133" height="106" viewBox="0 0 133 106" fill="none" xmlns="http://www.w3.org/2000/svg">
<rect width="133" height="106" fill="#F5F5F5"/>
<rect width="2106" height="18129" transform="translate(-43 -118)" fill="white"/>
<rect width="593" height="206" transform="translate(-43 -45)" fill="#1F3A55"/>
<path d="M43.5208 74.8337L42.2875 64.967C41.6194 64.71 40.9899 64.4017 40.3989 64.042C39.8079 63.6823 39.2298 63.2968 38.6645 62.8857L29.4916 66.7399L21.0125 52.0941L28.952 46.0816C28.9006 45.7219 28.875 45.375 28.875 45.0409V42.9597C28.875 42.6257 28.9006 42.2788 28.952 41.9191L21.0125 35.9066L29.4916 21.2607L38.6645 25.1149C39.2298 24.7038 39.8208 24.3184 40.4375 23.9587C41.0541 23.5989 41.6708 23.2906 42.2875 23.0337L43.5208 13.167H60.4791L61.7125 23.0337C62.3805 23.2906 63.01 23.5989 63.601 23.9587C64.192 24.3184 64.7701 24.7038 65.3354 25.1149L74.5083 21.2607L82.9875 35.9066L75.0479 41.9191C75.0993 42.2788 75.125 42.6257 75.125 42.9597V45.0409C75.125 45.375 75.0736 45.7219 74.9708 46.0816L82.9104 52.0941L74.4312 66.7399L65.3354 62.8857C64.7701 63.2968 64.1791 63.6823 63.5625 64.042C62.9458 64.4017 62.3291 64.71 61.7125 64.967L60.4791 74.8337H43.5208ZM48.9166 68.667H55.0062L56.0854 60.4962C57.6784 60.085 59.1559 59.4812 60.5177 58.6847C61.8795 57.8882 63.1256 56.9246 64.2562 55.7941L71.8875 58.9545L74.8937 53.7128L68.2645 48.7024C68.5215 47.983 68.7013 47.225 68.8041 46.4284C68.9069 45.6319 68.9583 44.8225 68.9583 44.0003C68.9583 43.1781 68.9069 42.3687 68.8041 41.5722C68.7013 40.7757 68.5215 40.0177 68.2645 39.2982L74.8937 34.2878L71.8875 29.0462L64.2562 32.2837C63.1256 31.1017 61.8795 30.1125 60.5177 29.3159C59.1559 28.5194 57.6784 27.9156 56.0854 27.5045L55.0833 19.3337H48.9937L47.9145 27.5045C46.3215 27.9156 44.844 28.5194 43.4822 29.3159C42.1204 30.1125 40.8743 31.076 39.7437 32.2066L32.1125 29.0462L29.1062 34.2878L35.7354 39.2212C35.4784 39.992 35.2986 40.7628 35.1958 41.5337C35.093 42.3045 35.0416 43.1267 35.0416 44.0003C35.0416 44.8225 35.093 45.6191 35.1958 46.3899C35.2986 47.1607 35.4784 47.9316 35.7354 48.7024L29.1062 53.7128L32.1125 58.9545L39.7437 55.717C40.8743 56.8989 42.1204 57.8882 43.4822 58.6847C44.844 59.4812 46.3215 60.085 47.9145 60.4962L48.9166 68.667ZM52.1541 54.792C55.1347 54.792 57.6784 53.7385 59.7854 51.6316C61.8923 49.5246 62.9458 46.9809 62.9458 44.0003C62.9458 41.0198 61.8923 38.476 59.7854 36.3691C57.6784 34.2621 55.1347 33.2087 52.1541 33.2087C49.1222 33.2087 46.5656 34.2621 44.4843 36.3691C42.4031 38.476 41.3625 41.0198 41.3625 44.0003C41.3625 46.9809 42.4031 49.5246 44.4843 51.6316C46.5656 53.7385 49.1222 54.792 52.1541 54.792Z" fill="white"/>
<g clip-path="url(#clip0_73_415)">
<path d="M98.743 38.1744L96.2827 33.2451C95.8863 33.2338 95.5006 33.1885 95.1255 33.1093C94.7505 33.03 94.3774 32.935 94.0064 32.8242L89.9219 36.5265L82.7954 30.433L85.8381 25.8298C85.7451 25.6512 85.6678 25.4747 85.6063 25.3001L85.2233 24.2125C85.1619 24.0379 85.1114 23.8519 85.0721 23.6545L79.8164 21.9735L81.5523 12.7592L87.0553 13.0852C87.2751 12.7664 87.513 12.4562 87.7691 12.1547C88.0251 11.8532 88.2907 11.5786 88.5656 11.3309L87.3944 5.94759L96.2568 2.82671L98.7171 7.75603C99.1135 7.76737 99.4992 7.81265 99.8743 7.89188C100.249 7.97111 100.622 8.06614 100.993 8.17695L105.078 4.47466L112.204 10.5681L109.162 15.1714C109.255 15.3499 109.332 15.5264 109.393 15.701L109.776 16.7887C109.838 16.9632 109.875 17.1539 109.887 17.3609L115.143 19.0418L113.407 28.2561L107.944 27.9159C107.725 28.2348 107.487 28.5449 107.231 28.8464C106.975 29.1479 106.709 29.4225 106.434 29.6703L107.605 35.0535L98.743 38.1744ZM100.428 33.9587L103.61 32.8381L102.671 28.3694C103.428 27.8614 104.089 27.2739 104.654 26.6071C105.219 25.9402 105.693 25.2073 106.075 24.4084L110.645 24.6556L111.252 21.3631L106.865 19.9647C106.867 19.5414 106.821 19.1122 106.729 18.677C106.636 18.2418 106.514 17.8094 106.362 17.3797C106.211 16.95 106.035 16.5365 105.835 16.1391C105.635 15.7418 105.401 15.3788 105.134 15.0501L107.677 11.2117L105.141 9.02562L101.749 12.1219C100.94 11.7123 100.107 11.4247 99.2488 11.259C98.3906 11.0934 97.5074 11.0497 96.5992 11.128L94.5718 7.0424L91.3894 8.16308L92.3291 12.6317C91.5722 13.1398 90.9113 13.7272 90.3462 14.3941C89.7811 15.061 89.3072 15.7938 88.9244 16.5927L84.3547 16.3455L83.7483 19.638L88.1206 20.9962C88.1281 21.4463 88.176 21.8823 88.2641 22.304C88.3523 22.7258 88.4767 23.1649 88.6375 23.6214C88.7888 24.0511 88.9623 24.4579 89.1578 24.8419C89.3534 25.2258 89.5893 25.5955 89.8654 25.9511L87.3231 29.7895L89.8588 31.9755L93.2511 28.8792C94.0594 29.2888 94.8927 29.5765 95.751 29.7421C96.6092 29.9078 97.4925 29.9514 98.4006 29.8731L100.428 33.9587ZM99.5665 26.1119C101.124 25.5634 102.26 24.5447 102.973 23.0559C103.686 21.567 103.769 20.0438 103.22 18.4862C102.672 16.9286 101.653 15.7931 100.164 15.0797C98.6753 14.3664 97.1521 14.284 95.5945 14.8325C94.01 15.3905 92.8678 16.4115 92.1679 17.8956C91.468 19.3797 91.3923 20.9006 91.9408 22.4582C92.4893 24.0158 93.5013 25.1537 94.9767 25.8718C96.4521 26.5898 97.982 26.6699 99.5665 26.1119Z" fill="#F64E11"/>
</g>
<path d="M3.06725 86.7169C2.16512 86.7169 1.42336 86.4491 0.841989 85.9135C0.280663 85.3572 0 84.6774 0 83.8739C0 83.0499 0.280663 82.37 0.841989 81.8344C1.42336 81.2781 2.16512 81 3.06725 81C3.94933 81 4.67104 81.2781 5.23236 81.8344C5.81374 82.37 6.10442 83.0499 6.10442 83.8739C6.10442 84.6774 5.81374 85.3572 5.23236 85.9135C4.67104 86.4491 3.94933 86.7169 3.06725 86.7169ZM5.62329 88.5093V105.753H0.481137V88.5093H5.62329Z" fill="white"/>
<path d="M19.5739 88.3239C21.5385 88.3239 23.1022 88.9831 24.265 90.3016C25.4478 91.5995 26.0392 93.3918 26.0392 95.6786V105.753H20.9271V96.3894C20.9271 95.2357 20.6364 94.3395 20.055 93.7009C19.4737 93.0622 18.6918 92.7429 17.7095 92.7429C16.7272 92.7429 15.9453 93.0622 15.364 93.7009C14.7826 94.3395 14.4919 95.2357 14.4919 96.3894V105.753H9.34975V88.5093H14.4919V90.796C15.0131 90.0338 15.7148 89.4363 16.5969 89.0037C17.479 88.5505 18.4713 88.3239 19.5739 88.3239Z" fill="white"/>
<path d="M38.0324 92.8974H35.2658V105.753H30.1237V92.8974H28.2593V88.5093H30.1237V88.0148C30.1237 85.8929 30.7151 84.2859 31.8979 83.1941C33.0807 82.0816 34.8148 81.5253 37.1002 81.5253C37.4811 81.5253 37.7617 81.5356 37.9421 81.5562V86.0371C36.9598 85.9753 36.2682 86.1195 35.8672 86.4697C35.4663 86.8199 35.2658 87.4483 35.2658 88.3548V88.5093H38.0324V92.8974Z" fill="white"/>
<path d="M48.0867 106C46.4428 106 44.9593 105.639 43.6361 104.918C42.3331 104.197 41.3006 103.167 40.5388 101.828C39.7971 100.489 39.4262 98.9234 39.4262 97.131C39.4262 95.3593 39.8071 93.8039 40.5689 92.4648C41.3307 91.1051 42.3732 90.0647 43.6963 89.3436C45.0194 88.6226 46.5029 88.2621 48.1468 88.2621C49.7907 88.2621 51.2742 88.6226 52.5973 89.3436C53.9204 90.0647 54.9629 91.1051 55.7247 92.4648C56.4865 93.8039 56.8674 95.3593 56.8674 97.131C56.8674 98.9028 56.4765 100.468 55.6946 101.828C54.9328 103.167 53.8803 104.197 52.5372 104.918C51.214 105.639 49.7305 106 48.0867 106ZM48.0867 101.426C49.069 101.426 49.9009 101.056 50.5826 100.314C51.2842 99.5723 51.635 98.5113 51.635 97.131C51.635 95.7507 51.2942 94.6897 50.6126 93.9481C49.9511 93.2064 49.1291 92.8356 48.1468 92.8356C47.1444 92.8356 46.3125 93.2064 45.6509 93.9481C44.9893 94.6691 44.6586 95.7301 44.6586 97.131C44.6586 98.5113 44.9793 99.5723 45.6208 100.314C46.2824 101.056 47.1043 101.426 48.0867 101.426Z" fill="white"/>
<path d="M64.7376 90.9506C65.2187 90.1471 65.9103 89.4981 66.8125 89.0037C67.7146 88.5093 68.747 88.2621 69.9098 88.2621C71.2931 88.2621 72.546 88.6226 73.6687 89.3436C74.7913 90.0647 75.6734 91.0948 76.3149 92.4339C76.9765 93.773 77.3073 95.3284 77.3073 97.1001C77.3073 98.8719 76.9765 100.438 76.3149 101.797C75.6734 103.136 74.7913 104.177 73.6687 104.918C72.546 105.639 71.2931 106 69.9098 106C68.727 106 67.6945 105.763 66.8125 105.289C65.9304 104.795 65.2387 104.146 64.7376 103.342V105.753H59.5954V82.885H64.7376V90.9506ZM72.0749 97.1001C72.0749 95.7816 71.714 94.7515 70.9923 94.0099C70.2907 93.2476 69.4186 92.8665 68.3762 92.8665C67.3537 92.8665 66.4817 93.2476 65.76 94.0099C65.0583 94.7721 64.7075 95.8125 64.7075 97.131C64.7075 98.4495 65.0583 99.4899 65.76 100.252C66.4817 101.014 67.3537 101.396 68.3762 101.396C69.3986 101.396 70.2706 101.014 70.9923 100.252C71.714 99.4693 72.0749 98.4186 72.0749 97.1001Z" fill="white"/>
<path d="M78.9825 97.1001C78.9825 95.3284 79.3033 93.773 79.9448 92.4339C80.6064 91.0948 81.4985 90.0647 82.6211 89.3436C83.7438 88.6226 84.9968 88.2621 86.38 88.2621C87.5628 88.2621 88.5953 88.5093 89.4773 89.0037C90.3795 89.4981 91.0711 90.1471 91.5522 90.9506V88.5093H96.6944V105.753H91.5522V103.311C91.0511 104.115 90.3494 104.764 89.4473 105.258C88.5652 105.753 87.5327 106 86.3499 106C84.9867 106 83.7438 105.639 82.6211 104.918C81.4985 104.177 80.6064 103.136 79.9448 101.797C79.3033 100.438 78.9825 98.8719 78.9825 97.1001ZM91.5522 97.131C91.5522 95.8125 91.1914 94.7721 90.4697 94.0099C89.768 93.2476 88.906 92.8665 87.8836 92.8665C86.8612 92.8665 85.9891 93.2476 85.2674 94.0099C84.5657 94.7515 84.2149 95.7816 84.2149 97.1001C84.2149 98.4186 84.5657 99.4693 85.2674 100.252C85.9891 101.014 86.8612 101.396 87.8836 101.396C88.906 101.396 89.768 101.014 90.4697 100.252C91.1914 99.4899 91.5522 98.4495 91.5522 97.131Z" fill="white"/>
<path d="M107.241 106C105.777 106 104.474 105.742 103.331 105.227C102.189 104.712 101.287 104.012 100.625 103.126C99.9634 102.22 99.5926 101.21 99.5124 100.098H104.594C104.655 100.695 104.925 101.179 105.406 101.55C105.887 101.921 106.479 102.106 107.18 102.106C107.822 102.106 108.313 101.983 108.654 101.735C109.015 101.468 109.195 101.128 109.195 100.716C109.195 100.221 108.945 99.8607 108.443 99.6341C107.942 99.3869 107.13 99.1191 106.008 98.8307C104.805 98.5422 103.803 98.2435 103.001 97.9345C102.199 97.6049 101.507 97.1001 100.926 96.4203C100.344 95.7198 100.054 94.7824 100.054 93.6082C100.054 92.6193 100.314 91.7231 100.836 90.9197C101.377 90.0956 102.159 89.4466 103.181 88.9728C104.224 88.499 105.456 88.2621 106.88 88.2621C108.985 88.2621 110.639 88.7977 111.841 89.869C113.064 90.9403 113.766 92.3618 113.946 94.1335H109.195C109.115 93.5361 108.854 93.0622 108.413 92.712C107.992 92.3618 107.431 92.1867 106.729 92.1867C106.128 92.1867 105.667 92.3103 105.346 92.5575C105.025 92.7841 104.865 93.1034 104.865 93.5155C104.865 94.0099 105.116 94.3807 105.617 94.6279C106.138 94.8752 106.94 95.1224 108.022 95.3696C109.265 95.6992 110.278 96.0288 111.06 96.3585C111.841 96.6675 112.523 97.1825 113.104 97.9036C113.706 98.604 114.017 99.5517 114.037 100.747C114.037 101.756 113.756 102.663 113.195 103.466C112.653 104.249 111.862 104.867 110.819 105.32C109.797 105.773 108.604 106 107.241 106Z" fill="white"/>
<path d="M133 96.8529C133 97.3473 132.97 97.8624 132.91 98.398H121.272C121.352 99.4693 121.683 100.293 122.265 100.87C122.866 101.426 123.598 101.705 124.46 101.705C125.743 101.705 126.635 101.148 127.136 100.036H132.609C132.328 101.169 131.817 102.189 131.075 103.095C130.354 104.002 129.442 104.712 128.339 105.227C127.236 105.742 126.003 106 124.64 106C122.996 106 121.533 105.639 120.25 104.918C118.967 104.197 117.964 103.167 117.243 101.828C116.521 100.489 116.16 98.9234 116.16 97.131C116.16 95.3387 116.511 93.773 117.213 92.4339C117.934 91.0948 118.937 90.0647 120.22 89.3436C121.503 88.6226 122.976 88.2621 124.64 88.2621C126.264 88.2621 127.708 88.6123 128.97 89.3127C130.233 90.0132 131.216 91.0124 131.917 92.3103C132.639 93.6082 133 95.1224 133 96.8529ZM127.738 95.4623C127.738 94.5558 127.437 93.8348 126.835 93.2991C126.234 92.7635 125.482 92.4957 124.58 92.4957C123.718 92.4957 122.986 92.7532 122.385 93.2682C121.804 93.7833 121.443 94.5146 121.302 95.4623H127.738Z" fill="white"/>
<defs>
<clipPath id="clip0_73_415">
<rect width="41" height="41" fill="white" transform="translate(77)"/>
</clipPath>
</defs>
</svg>
