<svg width="30" height="30" viewBox="0 0 30 30" fill="none" xmlns="http://www.w3.org/2000/svg">
<rect width="30" height="30" fill="#F5F5F5"/>
<rect width="2106" height="18129" transform="translate(-15 -2236)" fill="white"/>
<rect width="2029" height="1063" transform="translate(-15 -223)" fill="#1F3A55"/>
<path d="M5 17.5V15H13.75V17.5H5ZM5 12.5V10H18.75V12.5H5ZM5 7.5V5H18.75V7.5H5ZM16.25 25V21.1562L23.1562 14.2812C23.3438 14.0938 23.5521 13.9583 23.7812 13.875C24.0104 13.7917 24.2396 13.75 24.4688 13.75C24.7188 13.75 24.9583 13.7969 25.1875 13.8906C25.4167 13.9844 25.625 14.125 25.8125 14.3125L26.9688 15.4688C27.1354 15.6562 27.2656 15.8646 27.3594 16.0938C27.4531 16.3229 27.5 16.5521 27.5 16.7812C27.5 17.0104 27.4583 17.2448 27.375 17.4844C27.2917 17.724 27.1562 17.9375 26.9688 18.125L20.0938 25H16.25ZM18.125 23.125H19.3125L23.0938 19.3125L22.5312 18.7188L21.9375 18.1562L18.125 21.9375V23.125ZM22.5312 18.7188L21.9375 18.1562L23.0938 19.3125L22.5312 18.7188Z" fill="#A5B0BB"/>
</svg>
