<svg width="346" height="46" viewBox="0 0 346 46" fill="none" xmlns="http://www.w3.org/2000/svg">
<path d="M21.0833 32.584H24.9166V24.9173H32.5833V21.084H24.9166V13.4173H21.0833V21.084H13.4166V24.9173H21.0833V32.584ZM22.9999 42.1673C20.3485 42.1673 17.8569 41.6642 15.5249 40.6579C13.193 39.6517 11.1645 38.2861 9.4395 36.5611C7.7145 34.8361 6.34888 32.8076 5.34263 30.4757C4.33638 28.1437 3.83325 25.652 3.83325 23.0007C3.83325 20.3493 4.33638 17.8576 5.34263 15.5257C6.34888 13.1937 7.7145 11.1652 9.4395 9.44023C11.1645 7.71523 13.193 6.34961 15.5249 5.34336C17.8569 4.33711 20.3485 3.83398 22.9999 3.83398C25.6513 3.83398 28.143 4.33711 30.4749 5.34336C32.8069 6.34961 34.8353 7.71523 36.5603 9.44023C38.2853 11.1652 39.651 13.1937 40.6572 15.5257C41.6635 17.8576 42.1666 20.3493 42.1666 23.0007C42.1666 25.652 41.6635 28.1437 40.6572 30.4757C39.651 32.8076 38.2853 34.8361 36.5603 36.5611C34.8353 38.2861 32.8069 39.6517 30.4749 40.6579C28.143 41.6642 25.6513 42.1673 22.9999 42.1673ZM22.9999 38.334C27.2805 38.334 30.9062 36.8486 33.877 33.8777C36.8478 30.9069 38.3333 27.2812 38.3333 23.0007C38.3333 18.7201 36.8478 15.0944 33.877 12.1236C30.9062 9.15273 27.2805 7.66732 22.9999 7.66732C18.7194 7.66732 15.0937 9.15273 12.1228 12.1236C9.152 15.0944 7.66659 18.7201 7.66659 23.0007C7.66659 27.2812 9.152 30.9069 12.1228 33.8777C15.0937 36.8486 18.7194 38.334 22.9999 38.334Z" fill="#A5B0BB"/>
<path d="M66.7138 39.2628V30.3246H68.1946C68.6989 29.9624 69.1605 29.451 69.5795 28.7905C69.9986 28.1229 70.3572 27.2031 70.6555 26.0312C70.9538 24.8523 71.1669 23.3111 71.2947 21.4077L71.9126 12.1818H86.348V30.3246H88.7344V39.2415H84.3026V34H71.1456V39.2628H66.7138ZM73.5213 30.3246H81.9162V15.9851H76.0675L75.7266 21.4077C75.6342 22.8494 75.4815 24.1278 75.2685 25.2429C75.0625 26.358 74.8104 27.3345 74.5121 28.1726C74.2209 29.0036 73.8906 29.7209 73.5213 30.3246ZM98.8471 34.3196C97.1923 34.3196 95.7612 33.968 94.5538 33.2649C93.3535 32.5547 92.4267 31.5675 91.7733 30.3033C91.1199 29.032 90.7931 27.5582 90.7931 25.8821C90.7931 24.1918 91.1199 22.7145 91.7733 21.4503C92.4267 20.179 93.3535 19.1918 94.5538 18.4886C95.7612 17.7784 97.1923 17.4233 98.8471 17.4233C100.502 17.4233 101.93 17.7784 103.13 18.4886C104.337 19.1918 105.268 20.179 105.921 21.4503C106.574 22.7145 106.901 24.1918 106.901 25.8821C106.901 27.5582 106.574 29.032 105.921 30.3033C105.268 31.5675 104.337 32.5547 103.13 33.2649C101.93 33.968 100.502 34.3196 98.8471 34.3196ZM98.8684 30.804C99.6213 30.804 100.25 30.5909 100.754 30.1648C101.258 29.7315 101.638 29.142 101.894 28.3963C102.157 27.6506 102.288 26.8018 102.288 25.8501C102.288 24.8984 102.157 24.0497 101.894 23.304C101.638 22.5582 101.258 21.9687 100.754 21.5355C100.25 21.1023 99.6213 20.8857 98.8684 20.8857C98.1085 20.8857 97.4693 21.1023 96.9508 21.5355C96.4395 21.9687 96.0524 22.5582 95.7896 23.304C95.5339 24.0497 95.4061 24.8984 95.4061 25.8501C95.4061 26.8018 95.5339 27.6506 95.7896 28.3963C96.0524 29.142 96.4395 29.7315 96.9508 30.1648C97.4693 30.5909 98.1085 30.804 98.8684 30.804ZM123.456 11.6278L124.841 14.5895C124.38 14.973 123.868 15.2571 123.307 15.4418C122.746 15.6193 122.075 15.7365 121.294 15.7933C120.52 15.8501 119.575 15.8892 118.46 15.9105C117.196 15.9247 116.166 16.1271 115.371 16.5178C114.575 16.9084 113.971 17.5227 113.559 18.3608C113.148 19.1918 112.878 20.2784 112.75 21.6207H112.91C113.4 20.6193 114.089 19.8452 114.976 19.2983C115.871 18.7514 116.976 18.478 118.29 18.478C119.682 18.478 120.9 18.7834 121.944 19.3942C122.995 20.005 123.812 20.8821 124.394 22.0256C124.976 23.169 125.268 24.5398 125.268 26.1378C125.268 27.7997 124.941 29.245 124.287 30.4737C123.641 31.6953 122.721 32.6435 121.528 33.3182C120.335 33.9858 118.915 34.3196 117.267 34.3196C115.612 34.3196 114.184 33.9716 112.984 33.2756C111.791 32.5795 110.868 31.5533 110.214 30.1967C109.568 28.8402 109.245 27.1712 109.245 25.1896V23.8473C109.245 19.9055 110.012 16.983 111.546 15.0795C113.08 13.1761 115.335 12.2102 118.311 12.1818C119.121 12.1676 119.852 12.1641 120.506 12.1712C121.159 12.1783 121.731 12.1463 122.221 12.0753C122.718 12.0043 123.13 11.8551 123.456 11.6278ZM117.288 30.804C117.984 30.804 118.581 30.6229 119.078 30.2607C119.582 29.8984 119.969 29.38 120.239 28.7053C120.516 28.0305 120.655 27.2244 120.655 26.2869C120.655 25.3565 120.516 24.5682 120.239 23.9219C119.969 23.2685 119.582 22.7713 119.078 22.4304C118.574 22.0895 117.97 21.919 117.267 21.919C116.741 21.919 116.269 22.0149 115.85 22.2067C115.431 22.3984 115.072 22.6825 114.774 23.0589C114.483 23.4283 114.256 23.8864 114.092 24.4332C113.936 24.973 113.858 25.5909 113.858 26.2869C113.858 27.6861 114.16 28.7905 114.763 29.6001C115.374 30.4027 116.216 30.804 117.288 30.804ZM132.946 34.3089C131.902 34.3089 130.972 34.1278 130.155 33.7656C129.338 33.3963 128.692 32.853 128.216 32.1357C127.747 31.4112 127.513 30.5092 127.513 29.4297C127.513 28.5206 127.68 27.7571 128.013 27.1392C128.347 26.5213 128.802 26.0241 129.377 25.6477C129.952 25.2713 130.606 24.9872 131.337 24.7955C132.076 24.6037 132.85 24.4688 133.66 24.3906C134.612 24.2912 135.379 24.1989 135.961 24.1136C136.543 24.0213 136.966 23.8864 137.229 23.7088C137.491 23.5312 137.623 23.2685 137.623 22.9205V22.8565C137.623 22.1818 137.41 21.6598 136.984 21.2905C136.565 20.9212 135.968 20.7365 135.194 20.7365C134.377 20.7365 133.727 20.9176 133.244 21.2798C132.761 21.6349 132.442 22.0824 132.286 22.6222L128.088 22.2812C128.301 21.2869 128.72 20.4276 129.345 19.7031C129.97 18.9716 130.776 18.4105 131.763 18.0199C132.758 17.6222 133.908 17.4233 135.215 17.4233C136.124 17.4233 136.994 17.5298 137.825 17.7429C138.663 17.956 139.406 18.2862 140.052 18.7337C140.705 19.1811 141.22 19.7564 141.597 20.4595C141.973 21.1555 142.161 21.9901 142.161 22.9631V34H137.857V31.7308H137.729C137.467 32.2422 137.115 32.6932 136.675 33.0838C136.234 33.4673 135.705 33.7692 135.087 33.9893C134.469 34.2024 133.756 34.3089 132.946 34.3089ZM134.246 31.1768C134.913 31.1768 135.503 31.0455 136.014 30.7827C136.526 30.5128 136.927 30.1506 137.218 29.696C137.509 29.2415 137.655 28.7266 137.655 28.1513V26.4148C137.513 26.5071 137.317 26.5923 137.069 26.6705C136.827 26.7415 136.554 26.8089 136.249 26.8729C135.943 26.9297 135.638 26.983 135.332 27.0327C135.027 27.0753 134.75 27.1143 134.501 27.1499C133.969 27.228 133.504 27.3523 133.106 27.5227C132.708 27.6932 132.399 27.924 132.179 28.2152C131.959 28.4993 131.849 28.8544 131.849 29.2805C131.849 29.8984 132.072 30.3707 132.52 30.6974C132.974 31.017 133.55 31.1768 134.246 31.1768ZM145.682 34V17.6364H152.66C154.677 17.6364 156.272 18.0199 157.444 18.7869C158.615 19.554 159.201 20.6442 159.201 22.0575C159.201 22.9453 158.871 23.6839 158.211 24.2734C157.55 24.8629 156.634 25.2607 155.462 25.4666C156.442 25.5376 157.277 25.7614 157.966 26.1378C158.662 26.5071 159.191 26.9865 159.553 27.576C159.922 28.1655 160.107 28.8189 160.107 29.5362C160.107 30.4666 159.858 31.2656 159.361 31.9332C158.871 32.6009 158.15 33.1122 157.199 33.4673C156.254 33.8224 155.1 34 153.736 34H145.682ZM149.912 30.6016H153.736C154.368 30.6016 154.862 30.4524 155.217 30.1541C155.579 29.8487 155.76 29.4332 155.76 28.9077C155.76 28.3253 155.579 27.8672 155.217 27.5334C154.862 27.1996 154.368 27.0327 153.736 27.0327H149.912V30.6016ZM149.912 24.3693H152.756C153.211 24.3693 153.598 24.3054 153.917 24.1776C154.244 24.0426 154.493 23.8509 154.663 23.6023C154.841 23.3537 154.929 23.0589 154.929 22.718C154.929 22.2138 154.727 21.8196 154.322 21.5355C153.917 21.2514 153.363 21.1094 152.66 21.1094H149.912V24.3693ZM167.303 28.0128L173.195 17.6364H177.669V34H173.344V23.5916L167.474 34H162.967V17.6364H167.303V28.0128ZM179.664 21.2053V17.6364H194.493V21.2053H189.22V34H184.895V21.2053H179.664ZM200.089 22.6648H204.979C207.145 22.6648 208.836 23.1832 210.05 24.2202C211.265 25.25 211.872 26.6278 211.872 28.3537C211.872 29.4759 211.598 30.4631 211.051 31.3153C210.505 32.1605 209.716 32.821 208.686 33.2969C207.657 33.7656 206.421 34 204.979 34H197.245V17.6364H201.581V30.4311H204.979C205.739 30.4311 206.364 30.2393 206.854 29.8558C207.344 29.4723 207.593 28.9822 207.6 28.3857C207.593 27.7536 207.344 27.2386 206.854 26.8409C206.364 26.4361 205.739 26.2337 204.979 26.2337H200.089V22.6648ZM220.983 29.3658H225.383C225.404 29.9055 225.646 30.3317 226.107 30.6442C226.569 30.9567 227.166 31.1129 227.897 31.1129C228.636 31.1129 229.257 30.9425 229.762 30.6016C230.266 30.2536 230.518 29.7564 230.518 29.1101C230.518 28.7124 230.419 28.3679 230.22 28.0767C230.021 27.7784 229.744 27.544 229.389 27.3736C229.034 27.2031 228.622 27.1179 228.153 27.1179H225.798V24.1456H228.153C228.856 24.1456 229.396 23.9822 229.772 23.6555C230.156 23.3288 230.347 22.9205 230.347 22.4304C230.347 21.8764 230.149 21.4325 229.751 21.0987C229.36 20.7578 228.831 20.5874 228.164 20.5874C227.489 20.5874 226.928 20.7401 226.48 21.0455C226.04 21.3437 225.813 21.7344 225.798 22.2173H221.42C221.434 21.2372 221.729 20.3885 222.304 19.6712C222.887 18.9538 223.668 18.3999 224.648 18.0092C225.635 17.6186 226.74 17.4233 227.961 17.4233C229.296 17.4233 230.447 17.6115 231.413 17.9879C232.386 18.3572 233.132 18.8864 233.65 19.5753C234.176 20.2642 234.438 21.0845 234.438 22.0362C234.438 22.9027 234.154 23.6271 233.586 24.2095C233.018 24.7919 232.222 25.2074 231.2 25.456V25.6264C231.874 25.669 232.485 25.8501 233.032 26.1697C233.579 26.4893 234.016 26.9297 234.343 27.4908C234.669 28.0447 234.833 28.7017 234.833 29.4616C234.833 30.4773 234.534 31.3473 233.938 32.0717C233.348 32.7962 232.531 33.3537 231.487 33.7443C230.45 34.1278 229.261 34.3196 227.919 34.3196C226.612 34.3196 225.44 34.1314 224.403 33.755C223.373 33.3714 222.553 32.8104 221.942 32.0717C221.338 31.3331 221.019 30.4311 220.983 29.3658ZM242.282 34.3089C241.238 34.3089 240.308 34.1278 239.491 33.7656C238.674 33.3963 238.028 32.853 237.552 32.1357C237.083 31.4112 236.849 30.5092 236.849 29.4297C236.849 28.5206 237.016 27.7571 237.349 27.1392C237.683 26.5213 238.138 26.0241 238.713 25.6477C239.288 25.2713 239.942 24.9872 240.673 24.7955C241.412 24.6037 242.186 24.4688 242.996 24.3906C243.947 24.2912 244.714 24.1989 245.297 24.1136C245.879 24.0213 246.302 23.8864 246.565 23.7088C246.827 23.5312 246.959 23.2685 246.959 22.9205V22.8565C246.959 22.1818 246.746 21.6598 246.32 21.2905C245.901 20.9212 245.304 20.7365 244.53 20.7365C243.713 20.7365 243.063 20.9176 242.58 21.2798C242.097 21.6349 241.778 22.0824 241.621 22.6222L237.424 22.2812C237.637 21.2869 238.056 20.4276 238.681 19.7031C239.306 18.9716 240.112 18.4105 241.099 18.0199C242.094 17.6222 243.244 17.4233 244.551 17.4233C245.46 17.4233 246.33 17.5298 247.161 17.7429C247.999 17.956 248.741 18.2862 249.388 18.7337C250.041 19.1811 250.556 19.7564 250.933 20.4595C251.309 21.1555 251.497 21.9901 251.497 22.9631V34H247.193V31.7308H247.065C246.803 32.2422 246.451 32.6932 246.011 33.0838C245.57 33.4673 245.041 33.7692 244.423 33.9893C243.805 34.2024 243.092 34.3089 242.282 34.3089ZM243.582 31.1768C244.249 31.1768 244.839 31.0455 245.35 30.7827C245.862 30.5128 246.263 30.1506 246.554 29.696C246.845 29.2415 246.991 28.7266 246.991 28.1513V26.4148C246.849 26.5071 246.653 26.5923 246.405 26.6705C246.163 26.7415 245.89 26.8089 245.585 26.8729C245.279 26.9297 244.974 26.983 244.668 27.0327C244.363 27.0753 244.086 27.1143 243.837 27.1499C243.305 27.228 242.839 27.3523 242.442 27.5227C242.044 27.6932 241.735 27.924 241.515 28.2152C241.295 28.4993 241.185 28.8544 241.185 29.2805C241.185 29.8984 241.408 30.3707 241.856 30.6974C242.31 31.017 242.886 31.1768 243.582 31.1768ZM264.691 28.9822L269.123 17.6364H272.575L266.194 34H263.179L256.946 17.6364H260.387L264.691 28.9822ZM259.354 17.6364V34H255.018V17.6364H259.354ZM270.252 34V17.6364H274.535V34H270.252ZM285.503 34.3196C283.82 34.3196 282.371 33.9787 281.156 33.2969C279.949 32.608 279.018 31.6349 278.365 30.3778C277.712 29.1136 277.385 27.6186 277.385 25.8928C277.385 24.2095 277.712 22.7322 278.365 21.4609C279.018 20.1896 279.938 19.1989 281.124 18.4886C282.317 17.7784 283.717 17.4233 285.322 17.4233C286.401 17.4233 287.406 17.5973 288.337 17.9453C289.274 18.2862 290.091 18.8011 290.787 19.4901C291.49 20.179 292.037 21.0455 292.428 22.0895C292.818 23.1264 293.013 24.3409 293.013 25.733V26.9794H279.196V24.1669H288.741C288.741 23.5135 288.599 22.9347 288.315 22.4304C288.031 21.9261 287.637 21.532 287.133 21.2479C286.636 20.9567 286.057 20.8111 285.396 20.8111C284.707 20.8111 284.097 20.9709 283.564 21.2905C283.038 21.603 282.626 22.0256 282.328 22.5582C282.03 23.0838 281.877 23.6697 281.87 24.3161V26.9901C281.87 27.7997 282.019 28.4993 282.317 29.0888C282.623 29.6783 283.053 30.1328 283.607 30.4524C284.161 30.772 284.817 30.9318 285.577 30.9318C286.082 30.9318 286.543 30.8608 286.962 30.7188C287.381 30.5767 287.74 30.3636 288.038 30.0795C288.337 29.7955 288.564 29.4474 288.72 29.0355L292.918 29.3125C292.705 30.321 292.268 31.2017 291.607 31.9545C290.954 32.7003 290.109 33.2827 289.072 33.7017C288.042 34.1136 286.852 34.3196 285.503 34.3196ZM294.713 21.2053V17.6364H309.542V21.2053H304.269V34H299.944V21.2053H294.713ZM312.294 34V17.6364H316.832V23.9858H318.11L322.563 17.6364H327.89L322.105 25.7543L327.954 34H322.563L318.526 28.1939H316.832V34H312.294ZM332.937 40.1364C332.362 40.1364 331.822 40.0902 331.318 39.9979C330.821 39.9126 330.409 39.8026 330.082 39.6676L331.105 36.2798C331.637 36.4432 332.117 36.532 332.543 36.5462C332.976 36.5604 333.349 36.4609 333.662 36.2479C333.981 36.0348 334.24 35.6726 334.439 35.1612L334.706 34.4688L328.836 17.6364H333.608L336.996 29.6534H337.167L340.586 17.6364H345.391L339.031 35.7685C338.725 36.6491 338.31 37.4162 337.784 38.0696C337.266 38.7301 336.609 39.2379 335.814 39.593C335.018 39.9553 334.059 40.1364 332.937 40.1364Z" fill="#A5B0BB"/>
</svg>
